<?xml version="1.0" encoding="UTF-8" standalone="no"?>
<svg
   xmlns:dc="http://purl.org/dc/elements/1.1/"
   xmlns:cc="http://creativecommons.org/ns#"
   xmlns:rdf="http://www.w3.org/1999/02/22-rdf-syntax-ns#"
   xmlns:svg="http://www.w3.org/2000/svg"
   xmlns="http://www.w3.org/2000/svg"
   height="47.292999"
   width="89.999687"
   id="svg10"
   xml:space="preserve"
   enable-background="new 0 0 100 100"
   viewBox="0 0 89.999687 47.292999"
   y="0px"
   x="0px"
   version="1.1"><metadata
   id="metadata16"><rdf:RDF><cc:Work
       rdf:about=""><dc:format>image/svg+xml</dc:format><dc:type
         rdf:resource="http://purl.org/dc/dcmitype/StillImage" /><dc:title></dc:title></cc:Work></rdf:RDF></metadata><defs
   id="defs14" /><g
   transform="translate(-4.9998324,-26.353)"
   id="g20"><path
     d="m 91.921,58.502 c -1.747,-1.56 -3.964,-2.829 -5.69,-3.693 -1.571,-0.782 -2.735,-1.231 -2.758,-1.241 -2.682,-0.943 -3.64,-1.905 -3.97,-2.546 L 79.368,50.636 C 79.33,50.5 79.296,50.372 79.264,50.249 L 78.939,48.417 78.93,48.329 c 0.887,-1.133 1.609,-2.435 2.091,-3.767 l 0.066,-0.103 c 0.765,-0.764 1.179,-2.697 1.181,-2.716 0.561,-1.573 0.353,-2.258 0.178,-2.533 l -0.071,-0.113 0.041,-0.125 c 0.057,-0.17 1.374,-4.203 -0.444,-7.276 L 81.94,31.615 c -0.005,-0.028 -0.685,-2.868 -4.018,-4.125 -1.255,-0.762 -3.354,-1.137 -5.255,-1.137 -0.057,0 -0.11,10e-4 -0.166,0.002 -0.056,-0.001 -0.11,-0.002 -0.166,-0.002 -1.9,0 -4,0.375 -5.255,1.137 -3.333,1.258 -4.013,4.097 -4.019,4.125 l -0.031,0.081 c -1.818,3.073 -0.501,7.105 -0.445,7.276 l 0.042,0.125 -0.071,0.113 c -0.174,0.275 -0.384,0.96 0.178,2.533 0.002,0.019 0.415,1.952 1.18,2.716 l 0.067,0.103 c 0.481,1.332 1.204,2.633 2.091,3.767 l -0.009,0.088 -0.326,1.832 c -0.032,0.123 -0.064,0.25 -0.103,0.387 l -0.135,0.386 c -0.33,0.641 -1.288,1.603 -3.969,2.546 -0.023,0.01 -1.188,0.459 -2.76,1.241 -1.727,0.865 -3.941,2.134 -5.69,3.693 -0.036,0.028 -3.346,2.531 -3.063,9.189 0.019,0.483 0.056,0.981 0.117,1.508 0,0.53 0.169,0.956 1.194,1.275 0.084,0.031 8.961,3.172 20.729,3.172 0.146,0 0.296,-0.004 0.443,-0.004 0.146,0 0.297,0.004 0.443,0.004 11.768,0 20.645,-3.141 20.729,-3.172 1.024,-0.318 1.194,-0.745 1.194,-1.275 0.062,-0.526 0.099,-1.024 0.116,-1.508 0.286,-6.658 -3.024,-9.161 -3.061,-9.189 z"
     id="path2" /><path
     d="m 46.921,58.502 c -1.748,-1.56 -3.964,-2.829 -5.69,-3.693 -1.571,-0.782 -2.736,-1.231 -2.758,-1.241 -2.682,-0.943 -3.64,-1.905 -3.97,-2.546 L 34.369,50.636 C 34.331,50.5 34.297,50.372 34.266,50.249 L 33.94,48.417 33.932,48.329 c 0.887,-1.133 1.608,-2.435 2.09,-3.767 l 0.067,-0.103 c 0.764,-0.764 1.178,-2.697 1.18,-2.716 0.561,-1.573 0.353,-2.258 0.178,-2.533 l -0.071,-0.113 0.041,-0.125 c 0.057,-0.17 1.374,-4.203 -0.444,-7.276 L 36.94,31.615 c -0.005,-0.028 -0.685,-2.868 -4.018,-4.125 -1.255,-0.762 -3.355,-1.137 -5.255,-1.137 -0.056,0 -0.111,10e-4 -0.166,0.002 -0.056,-0.001 -0.11,-0.002 -0.167,-0.002 -1.899,0 -4,0.375 -5.255,1.137 -3.333,1.258 -4.012,4.097 -4.018,4.125 l -0.032,0.081 c -1.817,3.073 -0.501,7.105 -0.444,7.276 l 0.041,0.125 -0.071,0.113 c -0.173,0.275 -0.383,0.96 0.178,2.533 0.002,0.019 0.416,1.952 1.18,2.716 l 0.067,0.103 c 0.481,1.332 1.204,2.633 2.09,3.767 l -0.008,0.088 -0.326,1.832 c -0.032,0.123 -0.064,0.25 -0.103,0.387 l -0.135,0.386 c -0.33,0.641 -1.288,1.603 -3.969,2.546 -0.022,0.01 -1.187,0.459 -2.759,1.241 -1.726,0.865 -3.941,2.134 -5.69,3.693 -0.037,0.028 -3.346,2.531 -3.063,9.189 0.018,0.483 0.055,0.981 0.117,1.508 0,0.53 0.169,0.956 1.194,1.275 0.083,0.031 8.961,3.172 20.729,3.172 0.146,0 0.295,-0.004 0.443,-0.004 0.146,0 0.296,0.004 0.443,0.004 11.768,0 20.645,-3.141 20.729,-3.172 1.024,-0.318 1.195,-0.745 1.195,-1.275 0.061,-0.526 0.098,-1.024 0.116,-1.508 0.284,-6.658 -3.025,-9.161 -3.062,-9.189 z"
     id="path4" /></g><text
   style="font-weight:bold;font-size:5px;font-family:'Helvetica Neue', Helvetica, Arial-Unicode, Arial, Sans-serif;fill:#000000"
   id="text6"
   font-weight="bold"
   font-size="5px"
   y="88.647003"
   x="-4.9998322">Created by Wilson Joseph</text>

<text
   style="font-weight:bold;font-size:5px;font-family:'Helvetica Neue', Helvetica, Arial-Unicode, Arial, Sans-serif;fill:#000000"
   id="text8"
   font-weight="bold"
   font-size="5px"
   y="93.647003"
   x="-4.9998322">from the Noun Project</text>

</svg>