<?xml version="1.0" encoding="UTF-8" standalone="no"?>
<svg
   xmlns:dc="http://purl.org/dc/elements/1.1/"
   xmlns:cc="http://creativecommons.org/ns#"
   xmlns:rdf="http://www.w3.org/1999/02/22-rdf-syntax-ns#"
   xmlns:svg="http://www.w3.org/2000/svg"
   xmlns="http://www.w3.org/2000/svg"
   height="95.999893"
   width="45.470554"
   id="svg14"
   version="1.1"
   y="0px"
   x="0px"
   viewBox="0 0 45.470554 95.999893"
   data-name="Слой 1">
  <metadata
     id="metadata20">
    <rdf:RDF>
      <cc:Work
         rdf:about="">
        <dc:format>image/svg+xml</dc:format>
        <dc:type
           rdf:resource="http://purl.org/dc/dcmitype/StillImage" />
        <dc:title>знак 12</dc:title>
      </cc:Work>
    </rdf:RDF>
  </metadata>
  <defs
     id="defs18" />
  <title
     id="title2">знак 12</title>
  <g
     transform="translate(-27.264031,-2.0000231)"
     id="g8">
    <path
       id="path4"
       d="m 50.98748,72.62072 c 0.13215,1.3236 0.26036,2.64762 0.39752,3.9707 a 2.49479,2.49479 0 0 1 -2.49162,2.76317 6.50192,6.50192 0 0 1 -7.067,-5.691 C 40.894,68.68747 39.90818,63.56188 41.86361,58.64693 a 48.5935,48.5935 0 0 1 4.77283,-8.85422 c 1.60768,-2.41434 3.80091,-4.43051 5.61481,-6.7182 1.73723,-2.191 3.65067,-4.25317 4.15574,-7.24757 0.2585,-1.53253 1.44438,-2.8881 1.86871,-4.41859 0.48593,-1.75263 0.78744,-3.58 -0.31405,-5.36032 -0.30328,-0.49018 0.29763,-1.47409 0.08854,-2.09932 a 11.34954,11.34954 0 0 0 -5.66,-6.98534 c -1.395,-0.69691 -4.89374,0.19295 -6.40927,1.421 -3.385,2.74291 -4.20046,6.64213 -4.731,10.57967 a 15.9587,15.9587 0 0 1 -2.56446,6.98247 c -1.47673,2.19 -3.69145,2.30075 -5.95387,1.97535 A 5.23078,5.23078 0 0 1 28.4347,34.0163 c -1.5502,-4.71271 -1.71808,-9.45831 0.45629,-14.00633 2.538,-5.30859 5.16761,-10.52537 10.18,-14.17173 4.712,-3.42779 9.94689,-4.11259 15.44638,-3.75233 a 40.90148,40.90148 0 0 1 6.08989,1.35094 8.01312,8.01312 0 0 1 5.42147,4.08483 c 1.93516,3.5073 4.15336,6.95912 5.40324,10.71673 a 25.83174,25.83174 0 0 1 0.8517,12.9049 c -0.59149,3.05706 -2.50172,5.86458 -3.8598,8.76652 -3.30574,7.06369 -8.78584,12.605 -13.21431,18.88346 a 21.2482,21.2482 0 0 0 -4.22208,13.82743 z m -8.101,-56.88345 a 51.69886,51.69886 0 0 0 -9.43987,8.90832 L 34.09823,24.49447 32.2013,27.32709 32.0733,27.17436 60.259,5.5388 60.13756,5.05786 A 7.00589,7.00589 0 0 0 58.01142,5.37863 13.60033,13.60033 0 0 0 55.60321,7.1097 c -3.35879,2.71129 -6.54346,5.67478 -10.09785,8.09695 a 72.81522,72.81522 0 0 0 -9.56321,8.1744 9.67554,9.67554 0 0 1 -1.8656,1.13551 16.19191,16.19191 0 0 1 1.45659,-1.87107 c 2.41884,-2.33627 4.88194,-4.62667 7.32892,-6.93379 L 53.93714,7.5358 53.52756,7.00337 c -1.30246,1.0061 -2.63417,1.9769 -3.901,3.026 -2.26725,1.87773 -4.49542,3.80263 -6.74013,5.7079 z M 68.53671,37.1454 67.96692,36.32727 c -5.86487,3.65174 -12.80185,5.623 -17.3314,11.36811 C 57.19779,45.12736 62.80179,41.0319 68.53671,37.1454 Z M 53.4275,4.106 53.14995,3.722 C 45.4192,9.76382 37.493,15.574 31.19753,23.31708 L 30.73519,22.84431 Q 31.4196,21.836 32.104,20.82769 l -0.45213,-0.26561 -2.10777,3.53248 0.68934,0.5682 Q 41.83047,14.3844 53.4275,4.106 Z M 69.55271,31.52873 C 65.03133,34.42562 59.69522,35.9258 55.973,40.58164 a 3.585,3.585 0 0 0 0.93335,-0.06062 c 2.88706,-1.62663 5.761,-3.27656 8.65171,-4.8967 a 8.30044,8.30044 0 0 1 2.31338,-1.08113 c 1.59149,-0.30949 2.07428,-0.95551 1.68127,-3.01446 z m -24.69312,25.41348 0.186,0.32207 c 0.46032,-0.20735 0.93107,-0.39444 1.37934,-0.6252 4.14544,-2.13405 8.35214,-4.16167 12.3965,-6.47312 1.541,-0.8807 2.70687,-2.41773 4.0437,-3.65564 l -0.38506,-0.40555 q -8.81023,5.41868 -17.62048,10.83744 z m 13.322,-21.09041 0.41968,0.3742 a 1.51022,1.51022 0 0 0 0.46348,-0.0892 C 62.6,34.14525 66.144,32.16823 69.644,30.11626 a 4.83814,4.83814 0 0 0 1.014,-1.53133 2.56275,2.56275 0 0 0 -0.83947,-0.09468 c -3.16058,1.59418 -6.36032,3.121 -9.43775,4.86343 -0.91207,0.51646 -1.47578,1.64826 -2.19916,2.49812 z M 64.27871,8.159 C 62.49488,6.5915 62.44025,6.508 60.853,7.54682 58.41635,9.14151 56.0528,10.84928 53.68024,12.54 c -0.99668,0.71024 -1.93713,1.49939 -2.90314,2.25267 l 0.23931,0.47609 a 9.19473,9.19473 0 0 0 2.0494,-0.58658 C 54.23769,14.03383 55.26414,13.10886 56.4601,12.52063 59.08243,11.23082 60.618,8.12026 64.27871,8.159 Z M 43.48,61.5734 c 5.46,-2.08327 11.732,-6.21256 12.47532,-7.76758 a 1.89417,1.89417 0 0 0 -0.69431,0.05777 c -3.65445,2.06475 -7.314,4.1216 -10.92648,6.258 A 3.83261,3.83261 0 0 0 43.48,61.5734 Z M 65.99848,41.82392 65.53854,41.31934 c -4.63254,2.88928 -9.26508,5.77853 -14.13281,8.81452 a 2.31871,2.31871 0 0 0 0.69057,0.16752 c 4.23951,-2.28345 8.48841,-4.55051 12.69033,-6.90146 a 5.27644,5.27644 0 0 0 1.21185,-1.576 z M 42.902,65.24109 l 0.38686,0.514 c 1.672,-1.00734 3.35151,-2.00254 5.01452,-3.02454 3.64369,-2.23921 3.64029,-2.24475 4.08232,-3.904 -3.45186,1.87995 -7.16611,3.13919 -9.4837,6.41454 z m 16.45883,-42.71554 0.42606,0.49468 c 3.00133,-1.71968 6.01291,-3.42209 8.98656,-5.18838 a 2.36312,2.36312 0 0 0 0.43212,-1.11124 2.5486,2.5486 0 0 0 -1.27213,-0.20266 46.225,46.225 0 0 0 -4.44766,2.71942 c -1.43348,1.01328 -2.7546,2.18555 -4.12495,3.28818 z m 11.2183,0.50776 -0.21654,-0.50746 a 3.67249,3.67249 0 0 0 -1.2794,0.16589 q -4.1119,2.24352 -8.15965,4.60255 a 2.38661,2.38661 0 0 0 -0.46378,1.09354 3.73466,3.73466 0 0 0 1.22761,-0.183 c 2.65477,-1.42957 5.28881,-2.898 7.91683,-4.37644 a 7.14216,7.14216 0 0 0 0.97494,-0.79508 z M 50.58781,63.55987 c -3.42714,0.78415 -7.48336,3.91479 -7.29538,5.87435 2.32446,-2.14548 6.10465,-1.93728 7.29538,-5.87435 z m 19.5306,-43.07205 -0.18164,-0.43191 c -3.43311,0.38866 -6.20367,2.41726 -9.06407,4.18573 a 3.56686,3.56686 0 0 0 -0.77706,1.30031 l 0.46744,0.39037 z m -39.89066,13.6203 c 1.9277,-3.65838 4.67349,-5.78736 7.38232,-7.96428 1.01665,-0.817 1.93045,-1.762 2.89115,-2.6487 l -0.554,-0.58711 c -2.61767,2.41693 -5.22953,4.84019 -7.85915,7.24405 a 10.63643,10.63643 0 0 1 -1.33782,0.96413 c -0.42234,0.27931 -1.20781,0.50171 -1.2283,0.79189 a 7.10983,7.10983 0 0 0 0.7058,2.20002 z m 9.1181,-4.53936 -0.37891,-0.20611 c -2.4056,1.90408 -4.81121,3.80815 -7.241,5.73144 0.6485,1.02745 0.77111,1.11864 1.71424,0.33528 1.20857,-1.00383 2.30848,-2.13824 3.45856,-3.21279 0.68621,-0.64113 1.32242,-1.0312 1.76417,0.40458 z M 70.6562,25.63223 70.19884,24.92838 60.107,30.712 l 0.36829,0.633 c 3.22926,-2.18944 7.30771,-2.90561 10.18092,-5.71277 z m -4.9414,-15.859 -0.49,3.6e-4 A 16.16774,16.16774 0 0 1 63.33,11.41371 c -2.16807,1.37186 -4.39354,2.65271 -6.57506,4.00384 a 3.42513,3.42513 0 0 0 -0.90143,0.96235 0.9492,0.9492 0 0 0 0.31434,0.52426 5.04677,5.04677 0 0 0 1.34759,-0.54874 c 1.16228,-0.7729 2.27635,-1.61786 3.4294,-2.40517 1.3889,-0.94835 2.8314,-1.82238 4.17619,-2.82818 a 3.29918,3.29918 0 0 0 0.59378,-1.34888 z m 2.16129,4.62772 -0.31655,-0.5678 -9.0859,6.0518 0.45419,0.67888 Q 63.402,17.48237 67.8761,14.40091 Z m -33.6396,1.59546 0.25623,0.26731 9.96,-9.39608 L 44.111,6.51041 q -4.93724,4.74301 -9.87451,9.486 z m 14.80191,55.823 -4.58477,3.08459 c 2.65861,0.26295 4.62906,-1.03242 4.58477,-3.08462 z m -5.27732,0.34072 0.28125,0.4191 5.16185,-3.407 -0.32141,-0.48074 A 10.75293,10.75293 0 0 0 43.76108,72.1601 Z M 65.62829,12.4366 65.38707,12.0456 q -3.49924,2.19651 -6.99847,4.393 l 0.34755,0.53065 q 3.44607,-2.26636 6.89214,-4.53265 z m -34.2811,13.89865 c -1.66239,-0.3054 -2.40775,0.45734 -2.11317,2.46737 z m 17.54727,48.80668 -2.5716,2.103 c 2.06814,0.534 2.37972,-0.73177 2.5716,-2.103 z" />
    <path
       id="path6"
       d="M 43.47243,91.01528 C 43.46624,86.931 45.679,84.11848 48.90127,84.115 a 8.34361,8.34361 0 0 1 8.089,8.07625 5.67941,5.67941 0 0 1 -6.10958,5.79224 c -5.6863,-0.41862 -7.997,-2.14775 -7.40826,-6.96821 z" />
  </g>
  <text
     style="font-weight:bold;font-size:5px;font-family:'Helvetica Neue', Helvetica, Arial-Unicode, Arial, Sans-serif;fill:#000000"
     id="text10"
     font-weight="bold"
     font-size="5px"
     y="112.99998"
     x="-27.26403">Created by Tatyana</text>
  <text
     style="font-weight:bold;font-size:5px;font-family:'Helvetica Neue', Helvetica, Arial-Unicode, Arial, Sans-serif;fill:#000000"
     id="text12"
     font-weight="bold"
     font-size="5px"
     y="117.99998"
     x="-27.26403">from the Noun Project</text>
</svg>
