<svg xmlns="http://www.w3.org/2000/svg" data-name="Layer 1" viewBox="0 0 100 125" x="0px" y="0px"><title>Artboard 64</title><path d="M50,31.12A18.86,18.86,0,1,0,69.07,50,19,19,0,0,0,50,31.12ZM78.55,36a1.33,1.33,0,0,1-1.23-.7,30.93,30.93,0,0,0-4.75-6.45,1.37,1.37,0,0,1-.29-1.41l1.93-5.37-4.86-3.49-4.56,3.48a1.38,1.38,0,0,1-1.42.15,31.23,31.23,0,0,0-7.67-2.46,1.37,1.37,0,0,1-1.07-1L53,13.34H47l-1.63,5.47a1.37,1.37,0,0,1-1.07,1,31.23,31.23,0,0,0-7.67,2.46,1.37,1.37,0,0,1-1.42-.15l-4.56-3.48-4.86,3.49,1.93,5.37a1.36,1.36,0,0,1-.3,1.41,31.14,31.14,0,0,0-4.74,6.45,1.35,1.35,0,0,1-1.23.7l-5.77-.15-1.85,5.62,4.77,3.23A1.37,1.37,0,0,1,19.18,46a32.08,32.08,0,0,0-.26,4,30.63,30.63,0,0,0,.27,4,1.35,1.35,0,0,1-.59,1.31l-4.77,3.24,1.85,5.62L21.47,64a1.35,1.35,0,0,1,1.23.7,31.28,31.28,0,0,0,4.73,6.42,1.36,1.36,0,0,1,.3,1.41l-1.94,5.4,4.86,3.49,4.6-3.51a1.36,1.36,0,0,1,1.41-.15,31.05,31.05,0,0,0,7.63,2.45,1.37,1.37,0,0,1,1.07,1L47,86.66h6l1.64-5.51a1.37,1.37,0,0,1,1.07-1,31.05,31.05,0,0,0,7.63-2.45,1.36,1.36,0,0,1,1.41.15l4.6,3.51,4.86-3.49-1.94-5.4a1.37,1.37,0,0,1,.29-1.41,31,31,0,0,0,4.74-6.42,1.32,1.32,0,0,1,1.23-.7l5.79.15,1.85-5.62L81.4,55.28A1.35,1.35,0,0,1,80.81,54a30.63,30.63,0,0,0,.27-4,32.08,32.08,0,0,0-.26-4,1.37,1.37,0,0,1,.58-1.31l4.77-3.23-1.85-5.62ZM50,77A27,27,0,1,1,77.28,50,27.18,27.18,0,0,1,50,77ZM86.77,3.05H13.23A10.18,10.18,0,0,0,3.05,13.23V86.77A10.18,10.18,0,0,0,13.23,97H86.77A10.18,10.18,0,0,0,97,86.77V13.23A10.18,10.18,0,0,0,86.77,3.05ZM83.81,50a32.56,32.56,0,0,1-.19,3.51l4.94,3.34a1.38,1.38,0,0,1,.53,1.56L86.6,66a1.37,1.37,0,0,1-1.33.94l-6-.17a33.9,33.9,0,0,1-4.16,5.64l2,5.58a1.38,1.38,0,0,1-.49,1.58l-6.51,4.68a1.37,1.37,0,0,1-1.63,0l-4.75-3.62A33.32,33.32,0,0,1,57,82.72l-1.7,5.7a1.36,1.36,0,0,1-1.31,1H46a1.36,1.36,0,0,1-1.31-1L43,82.72a33.32,33.32,0,0,1-6.72-2.15L31.5,84.19a1.37,1.37,0,0,1-1.63,0l-6.51-4.68A1.38,1.38,0,0,1,22.87,78l2-5.58a34.31,34.31,0,0,1-4.16-5.64l-6,.17A1.39,1.39,0,0,1,13.4,66l-2.49-7.58a1.38,1.38,0,0,1,.53-1.56l4.94-3.34A32.56,32.56,0,0,1,16.19,50a34.49,34.49,0,0,1,.18-3.47l-4.93-3.34a1.38,1.38,0,0,1-.53-1.56L13.4,34a1.37,1.37,0,0,1,1.33-.94l6,.17a34,34,0,0,1,4.17-5.67l-2-5.55a1.38,1.38,0,0,1,.49-1.58l6.51-4.68a1.37,1.37,0,0,1,1.63,0l4.72,3.59A34.39,34.39,0,0,1,43,17.23l1.69-5.65a1.36,1.36,0,0,1,1.31-1h8a1.36,1.36,0,0,1,1.31,1L57,17.23a34.39,34.39,0,0,1,6.76,2.17l4.72-3.59a1.37,1.37,0,0,1,1.63,0l6.51,4.68A1.38,1.38,0,0,1,77.13,22l-2,5.55a34.18,34.18,0,0,1,4.17,5.67l6-.17A1.35,1.35,0,0,1,86.6,34l2.49,7.58a1.38,1.38,0,0,1-.53,1.56l-4.93,3.34A34.49,34.49,0,0,1,83.81,50ZM50,25.71A24.27,24.27,0,1,0,74.54,50,24.44,24.44,0,0,0,50,25.71Zm0,45.86A21.59,21.59,0,1,1,71.8,50,21.72,21.72,0,0,1,50,71.57Z"/><text x="0" y="115" fill="#000000" font-size="5px" font-weight="bold" font-family="'Helvetica Neue', Helvetica, Arial-Unicode, Arial, Sans-serif">Created by Baboons Icon</text><text x="0" y="120" fill="#000000" font-size="5px" font-weight="bold" font-family="'Helvetica Neue', Helvetica, Arial-Unicode, Arial, Sans-serif">from the Noun Project</text></svg>