<?xml version="1.0" encoding="UTF-8" standalone="no"?>
<svg
   xmlns:dc="http://purl.org/dc/elements/1.1/"
   xmlns:cc="http://creativecommons.org/ns#"
   xmlns:rdf="http://www.w3.org/1999/02/22-rdf-syntax-ns#"
   xmlns:svg="http://www.w3.org/2000/svg"
   xmlns="http://www.w3.org/2000/svg"
   xmlns:sodipodi="http://sodipodi.sourceforge.net/DTD/sodipodi-0.dtd"
   xmlns:inkscape="http://www.inkscape.org/namespaces/inkscape"
   version="1.1"
   x="0px"
   y="0px"
   viewBox="0 0 86.019066 90.005424"
   enable-background="new 0 0 100 100"
   xml:space="preserve"
   id="svg10"
   sodipodi:docname="settings.svg"
   width="86.019066"
   height="90.005424"
   inkscape:version="0.92.5 (2060ec1f9f, 2020-04-08)"><metadata
     id="metadata16"><rdf:RDF><cc:Work
         rdf:about=""><dc:format>image/svg+xml</dc:format><dc:type
           rdf:resource="http://purl.org/dc/dcmitype/StillImage" /><dc:title></dc:title></cc:Work></rdf:RDF></metadata><defs
     id="defs14" /><sodipodi:namedview
     pagecolor="#ffffff"
     bordercolor="#666666"
     borderopacity="1"
     objecttolerance="10"
     gridtolerance="10"
     guidetolerance="10"
     inkscape:pageopacity="0"
     inkscape:pageshadow="2"
     inkscape:window-width="1366"
     inkscape:window-height="736"
     id="namedview12"
     showgrid="false"
     fit-margin-top="0"
     fit-margin-left="0"
     fit-margin-right="0"
     fit-margin-bottom="0"
     inkscape:zoom="2.6700352"
     inkscape:cx="159.38659"
     inkscape:cy="21.478442"
     inkscape:window-x="0"
     inkscape:window-y="0"
     inkscape:window-maximized="1"
     inkscape:current-layer="svg10" /><g
     id="g20"
     transform="translate(-6.9597506,-5)"><path
       id="path2"
       d="m 8.8,46.9 c 2.4,0.4 4.8,0.8 7.2,1.2 -0.4,4.1 -0.4,8.3 0.2,12.4 -2.1,1.1 -4.2,2.3 -6.4,3.4 -1.2,0.7 -1.5,2.3 -0.9,3.4 3.1,5.8 6.2,11.6 9.2,17.4 0.6,1.2 2.3,1.6 3.4,0.9 2,-1.3 4,-2.5 6,-3.8 3.9,2 8,3.3 12.3,4 0.1,2.2 0.2,4.5 0.3,6.7 0.1,1.3 1.1,2.6 2.5,2.5 5.6,-0.3 11.1,-0.6 16.7,-0.9 1.4,-0.1 2.4,-1.1 2.5,-2.5 0.1,-2.3 0.2,-4.7 0.3,-7 4.3,-2.1 8.3,-4.8 11.7,-8.1 1.6,1.2 3.2,2.5 4.8,3.7 1.1,0.8 2.8,0.2 3.4,-0.9 3.1,-5.6 6.3,-11.1 9.4,-16.7 0.7,-1.2 0.3,-2.7 -0.9,-3.4 -1.6,-1 -3.3,-2 -4.9,-3.1 0.4,-4.1 0.2,-8.3 -0.5,-12.4 2.2,-1.2 4.4,-2.5 6.7,-3.7 1.3,-0.7 1.4,-2.2 0.9,-3.4 -2.2,-4.9 -4.4,-9.8 -6.5,-14.8 -0.6,-1.4 -2.3,-1.4 -3.4,-0.9 -2.3,1 -4.6,2 -6.9,2.9 C 71.6,20.5 66.8,18 61.7,16.1 61.7,13.2 61.6,10.3 61.6,7.4 61.5,6.1 60.4,5 59,5 53.1,5 47.3,5.1 41.4,5.1 c -1.3,0 -2.5,1.1 -2.5,2.5 0.1,3.4 0.2,6.8 0.3,10.2 -4.8,2.1 -9.3,5 -13.3,8.5 -3,-1 -6.1,-2 -9.1,-2.9 -1.4,-0.4 -2.6,0.5 -3.1,1.7 -2.2,6.2 -4.4,12.5 -6.6,18.7 -0.5,1.2 0.4,2.9 1.7,3.1 z m 8.9,-18.1 c 2.7,0.9 5.5,1.8 8.2,2.6 0.9,0.3 1.8,0 2.4,-0.6 4.1,-3.8 8.9,-7 14.1,-9 1,-0.4 1.9,-1.2 1.8,-2.4 -0.1,-3.1 -0.2,-6.2 -0.3,-9.3 4.2,0 8.4,0 12.6,-0.1 0,2.7 0.1,5.3 0.1,8 0,1.2 0.8,2.1 1.8,2.4 5.5,1.8 10.7,4.5 15.2,8.1 1,0.8 1.9,0.9 3,0.4 2,-0.8 4,-1.7 6,-2.5 1.5,3.5 3.1,7 4.6,10.4 -2.1,1.2 -4.2,2.3 -6.3,3.5 -1,0.6 -1.4,1.7 -1.1,2.8 1,4.7 1.2,9.6 0.6,14.4 -0.2,1.2 0.5,2 1.4,2.3 1.3,0.8 2.7,1.7 4,2.5 -2.3,4 -4.6,8.1 -6.8,12.1 -1.4,-1.1 -2.9,-2.2 -4.3,-3.3 -0.9,-0.6 -2.3,-0.4 -3,0.4 -3.8,4.1 -8.3,7.2 -13.3,9.5 -0.8,0.4 -1.2,1.3 -1.2,2.2 C 57.1,85.3 57,87.3 57,89.4 53,89.6 49.1,89.8 45.1,90 45,87.9 44.9,85.9 44.8,83.8 44.7,82.3 43.7,81.5 42.3,81.3 37.5,80.7 33,79.3 28.8,76.9 28,76.5 27,76.4 26.3,76.9 24.7,77.9 23,79 21.4,80 19.1,75.7 16.9,71.4 14.6,67.1 c 1.9,-1 3.8,-2 5.7,-3.1 1.1,-0.6 1.3,-1.7 1.1,-2.8 -0.8,-4.8 -0.8,-9.7 -0.1,-14.5 0.2,-1.2 -0.3,-2.8 -1.7,-3.1 -2.2,-0.4 -4.4,-0.7 -6.6,-1.1 1.4,-4.6 3,-9.1 4.7,-13.7 z"
       inkscape:connector-curvature="0" /><path
       id="path4"
       d="m 50.5,70.8 c 10.8,0.4 18.9,-8.9 19.6,-19.1 0,-0.2 0,-0.4 0,-0.6 0,-0.2 0,-0.4 -0.1,-0.6 -0.7,-10.7 -8.8,-18.6 -19.6,-19 -11,-0.4 -19.2,9.3 -19.6,19.6 -0.3,11 9.4,19.3 19.7,19.7 z m 0,-34.3 C 58.7,36.2 64.8,43.4 65.1,51.1 64.8,59.3 58.7,65.4 50.5,65.7 42.3,66 36.2,58.8 35.9,51.1 35.6,42.9 42.8,36.8 50.5,36.5 Z"
       inkscape:connector-curvature="0" /></g><text
     x="-6.9597507"
     y="110"
     font-size="5px"
     font-weight="bold"
     id="text6"
     style="font-weight:bold;font-size:5px;font-family:'Helvetica Neue', Helvetica, Arial-Unicode, Arial, Sans-serif;fill:#000000">Created by Arthur Shlain</text>
<text
     x="-6.9597507"
     y="115"
     font-size="5px"
     font-weight="bold"
     id="text8"
     style="font-weight:bold;font-size:5px;font-family:'Helvetica Neue', Helvetica, Arial-Unicode, Arial, Sans-serif;fill:#000000">from the Noun Project</text>
</svg>