<svg xmlns:dc="http://purl.org/dc/elements/1.1/" xmlns:cc="http://creativecommons.org/ns#" xmlns:rdf="http://www.w3.org/1999/02/22-rdf-syntax-ns#" xmlns:svg="http://www.w3.org/2000/svg" xmlns="http://www.w3.org/2000/svg" xmlns:sodipodi="http://sodipodi.sourceforge.net/DTD/sodipodi-0.dtd" xmlns:inkscape="http://www.inkscape.org/namespaces/inkscape" version="1.1" x="0px" y="0px" viewBox="0 0 100 125"><g transform="translate(0,-952.36218)"><path style="text-indent:0;text-transform:none;direction:ltr;block-progression:tb;baseline-shift:baseline;color:#000000;enable-background:accumulate;" d="m 42.000002,956.36216 c -1.5259,-0.002 -2.7629,1.39471 -2.9688,2.53125 l -1.6874,10.90625 c -0.4841,0.19034 -0.9666,0.3838 -1.4376,0.59375 l -8.875,-6.53125 c -1.1485,-0.84062 -2.9059,-0.70004 -3.9062,0.3125 l -11.312499,11.3125 c -0.9874,1.00468 -1.1131,2.73827 -0.2813,3.875 l 6.531299,8.875 c -0.2164,0.48397 -0.4294,0.97082 -0.625,1.46875 l -10.9062986,1.6875 c -1.3982,0.22133 -2.5338004,1.55301 -2.5312004,2.96875 l 0,16.00004 c 0.012,1.4053 1.1432004,2.7178 2.5312004,2.9375 l 10.9062986,1.6875 c 0.1956,0.4979 0.4086,0.9848 0.625,1.4687 l -6.531299,8.875 c -0.8318,1.1368 -0.7061,2.8704 0.2813,3.875 l 11.312499,11.3125 c 1.0003,1.0126 2.7577,1.1532 3.9062,0.3125 l 8.875,-6.5312 c 0.471,0.2099 0.9535,0.4034 1.4376,0.5937 l 1.6874,10.9063 c 0.208,1.4094 1.5441,2.5628 2.9688,2.5625 l 16,0 c 1.4246,3e-4 2.7609,-1.1531 2.9688,-2.5625 l 1.6874,-10.9063 c 0.4842,-0.1903 0.9667,-0.3838 1.4376,-0.5937 l 8.875,6.5312 c 1.1485,0.8407 2.9058,0.7001 3.9062,-0.3125 l 11.3125,-11.3125 c 0.9874,-1.0046 1.1132,-2.7382 0.2813,-3.875 l -6.5313,-8.875 c 0.2164,-0.4839 0.4294,-0.9708 0.625,-1.4687 l 10.9063,-1.6875 c 1.3881,-0.2197 2.519099,-1.5322 2.531199,-2.9375 l 0,-16.00004 c 0,-1.41574 -1.132999,-2.74742 -2.531199,-2.96875 l -10.9063,-1.6875 c -0.1956,-0.49793 -0.4086,-0.98478 -0.625,-1.46875 l 6.5313,-8.875 c 0.8319,-1.13673 0.7061,-2.87032 -0.2813,-3.875 l -11.3125,-11.3125 c -1.0004,-1.01254 -2.7577,-1.15312 -3.9062,-0.3125 l -8.875,6.53125 c -0.4709,-0.20995 -0.9534,-0.40341 -1.4376,-0.59375 l -1.6874,-10.90625 c -0.2213,-1.39833 -1.5531,-2.53377 -2.9688,-2.53125 l -16,0 z m 2.5625,6 10.875,0 1.5313,10 c 0.1636,1.09283 0.9813,2.06153 2.0312,2.40625 1.4181,0.46228 2.7847,1.03636 4.125,1.71875 0.9877,0.51019 2.2612,0.40933 3.1562,-0.25 l 8.1876,-6 7.6562,7.65625 -6,8.1875 c -0.6573,0.88277 -0.7703,2.13906 -0.2812,3.125 0.6824,1.34029 1.2876,2.70686 1.75,4.125 0.3398,1.04163 1.2932,1.85696 2.375,2.03125 l 10.0312,1.56255 0,10.84369 -10.0312,1.5625 c -1.0818,0.1743 -2.0352,0.9897 -2.375,2.0313 -0.4624,1.4181 -1.0676,2.7848 -1.75,4.125 -0.4891,0.9859 -0.3761,2.2422 0.2812,3.125 l 6,8.1875 -7.6562,7.6562 -8.1876,-6 c -0.895,-0.6593 -2.1685,-0.7602 -3.1562,-0.25 -1.3403,0.6824 -2.7069,1.2565 -4.125,1.7188 -1.0499,0.3447 -1.8676,1.3134 -2.0312,2.4062 l -1.5626,10.0313 -10.8124,0 -1.5626,-10.0313 c -0.1635,-1.0928 -0.9814,-2.0615 -2.0312,-2.4062 -1.4182,-0.4623 -2.7848,-1.0364 -4.125,-1.7188 -0.9878,-0.5102 -2.2611,-0.4093 -3.1562,0.25 l -8.1876,6 -7.6562,-7.6562 6,-8.1875 c 0.6572,-0.8828 0.7704,-2.1391 0.2812,-3.125 -0.6823,-1.3402 -1.2876,-2.7069 -1.75,-4.125 -0.3398,-1.0416 -1.2932,-1.857 -2.375,-2.0313 l -10.031199,-1.5625 0,-10.84369 10.031199,-1.56255 c 1.0818,-0.17429 2.0352,-0.98962 2.375,-2.03125 0.4624,-1.41814 1.0677,-2.78471 1.75,-4.125 0.4892,-0.98594 0.376,-2.24223 -0.2812,-3.125 l -6,-8.1875 7.6562,-7.65625 8.1876,6 c 0.8951,0.65933 2.1684,0.76019 3.1562,0.25 1.3402,-0.68239 2.7068,-1.25647 4.125,-1.71875 1.0498,-0.34472 1.8677,-1.31342 2.0312,-2.40625 l 1.5313,-10 z m 5.4375,18 c -12.1147,0 -22,9.88532 -22,22.00004 0,12.1147 9.8853,22 22,22 12.1148,0 22,-9.8854 22,-22 0,-12.1147 -9.8852,-22.00004 -22,-22.00004 z m 0,6 c 8.8722,0 16,7.12796 16,16.00004 0,8.872 -7.1278,16 -16,16 -8.8721,0 -16,-7.128 -16,-16 0,-8.87206 7.1279,-16.00004 16,-16.00004 z" fill="#000000" fill-opacity="1" stroke="none" marker="none" visibility="visible" display="inline" overflow="visible"/></g><text x="0" y="115" fill="#000000" font-size="5px" font-weight="bold" font-family="'Helvetica Neue', Helvetica, Arial-Unicode, Arial, Sans-serif">Created by Aya Sofya</text><text x="0" y="120" fill="#000000" font-size="5px" font-weight="bold" font-family="'Helvetica Neue', Helvetica, Arial-Unicode, Arial, Sans-serif">from the Noun Project</text></svg>