<?xml version="1.0" encoding="UTF-8" standalone="no"?>
<svg
   xmlns:dc="http://purl.org/dc/elements/1.1/"
   xmlns:cc="http://creativecommons.org/ns#"
   xmlns:rdf="http://www.w3.org/1999/02/22-rdf-syntax-ns#"
   xmlns:svg="http://www.w3.org/2000/svg"
   xmlns="http://www.w3.org/2000/svg"
   height="84"
   width="84"
   id="svg74"
   xml:space="preserve"
   enable-background="new 0 0 100 100"
   viewBox="0 0 84 84"
   y="0px"
   x="0px"
   version="1.1"><metadata
     id="metadata80"><rdf:RDF><cc:Work
         rdf:about=""><dc:format>image/svg+xml</dc:format><dc:type
           rdf:resource="http://purl.org/dc/dcmitype/StillImage" /><dc:title></dc:title></cc:Work></rdf:RDF></metadata><defs
     id="defs78" /><g
     transform="translate(-10.091,-4)"
     id="g68"><g
       id="g66"><g
         id="g6"><g
           id="g4"><path
             id="path2"
             d="m 28.091,52 c -4.418,0 -8,3.578 -8,8 0,4.422 3.582,8 8,8 4.422,0 8,-3.578 8,-8 0,-4.422 -3.578,-8 -8,-8 z" /></g></g><g
         id="g12"><g
           id="g10"><path
             id="path8"
             d="m 76.091,52 c -4.418,0 -8,3.578 -8,8 0,4.422 3.582,8 8,8 4.422,0 8,-3.578 8,-8 0,-4.422 -3.578,-8 -8,-8 z" /></g></g><g
         id="g16"><path
           id="path14"
           d="m 38.091,76 v 0 h -20 v 0 0 c -4.418,0 -8,3.582 -8,8 v 4 h 36 v -4 c 0,-4.418 -3.578,-8 -8,-8 z" /></g><g
         id="g32"><g
           id="g26"><g
             id="g20"><path
               id="path18"
               d="m 66.091,76 v 0 c -4.418,0 -8,3.582 -8,8 v 4 h 12 V 76 Z" /></g><g
             id="g24"><path
               id="path22"
               d="m 94.091,84 c 0,-4.418 -3.578,-8 -8,-8 h -4 v 12 h 12 z" /></g></g><g
           id="g30"><rect
             id="rect28"
             height="12"
             width="4"
             y="76"
             x="74.091003" /></g></g><g
         id="g38"><g
           id="g36"><path
             id="path34"
             d="m 76.091,4 c -4.422,0 -8,3.578 -8,8 0,4.422 3.578,8 8,8 4.422,0 8,-3.578 8,-8 0,-4.422 -3.578,-8 -8,-8 z" /></g></g><g
         id="g44"><g
           id="g42"><path
             id="path40"
             d="m 28.091,4 c -4.422,0 -8,3.578 -8,8 0,4.422 3.578,8 8,8 4.422,0 8,-3.578 8,-8 0,-4.422 -3.578,-8 -8,-8 z" /></g></g><g
         id="g48"><path
           id="path46"
           d="m 66.091,28 v 0 h 20 v 0 0 c 4.422,0 8,3.582 8,8 v 4 h -36 v -4 c 0,-4.418 3.582,-8 8,-8 z" /></g><g
         id="g64"><g
           id="g58"><g
             id="g52"><path
               id="path50"
               d="m 38.091,28 v 0 c 4.422,0 8,3.582 8,8 v 4 h -12 V 28 Z" /></g><g
             id="g56"><path
               id="path54"
               d="m 10.091,36 c 0,-4.418 3.582,-8 8,-8 h 4 v 12 h -12 z" /></g></g><g
           id="g62"><rect
             id="rect60"
             height="12"
             width="4"
             y="28"
             x="26.091" /></g></g></g></g><text
     style="font-weight:bold;font-size:5px;font-family:'Helvetica Neue', Helvetica, Arial-Unicode, Arial, Sans-serif;fill:#000000"
     id="text70"
     font-weight="bold"
     font-size="5px"
     y="111"
     x="-10.091">Created by Miguel C Balandrano</text>
<text
     style="font-weight:bold;font-size:5px;font-family:'Helvetica Neue', Helvetica, Arial-Unicode, Arial, Sans-serif;fill:#000000"
     id="text72"
     font-weight="bold"
     font-size="5px"
     y="116"
     x="-10.091">from the Noun Project</text>
</svg>