<?xml version="1.0" encoding="UTF-8" standalone="no"?>
<svg
   xmlns:dc="http://purl.org/dc/elements/1.1/"
   xmlns:cc="http://creativecommons.org/ns#"
   xmlns:rdf="http://www.w3.org/1999/02/22-rdf-syntax-ns#"
   xmlns:svg="http://www.w3.org/2000/svg"
   xmlns="http://www.w3.org/2000/svg"
   height="29.253"
   width="89.994827"
   id="svg14"
   xml:space="preserve"
   enable-background="new 0 0 100 100"
   viewBox="0 0 89.994827 29.253"
   y="0px"
   x="0px"
   version="1.1"><metadata
     id="metadata20"><rdf:RDF><cc:Work
         rdf:about=""><dc:format>image/svg+xml</dc:format><dc:type
           rdf:resource="http://purl.org/dc/dcmitype/StillImage" /><dc:title></dc:title></cc:Work></rdf:RDF></metadata><defs
     id="defs18" /><g
     transform="translate(-5.0005007,-35.374)"
     id="g8"><path
       id="path2"
       d="m 62.013,55.259 c -1.081,-0.965 -2.452,-1.75 -3.521,-2.285 -0.972,-0.483 -1.691,-0.762 -1.706,-0.767 -1.658,-0.584 -2.251,-1.18 -2.455,-1.575 L 54.248,50.393 C 54.225,50.309 54.203,50.23 54.185,50.154 l -0.202,-1.133 -0.005,-0.055 c 0.549,-0.701 0.995,-1.506 1.293,-2.33 l 0.041,-0.063 c 0.473,-0.472 0.729,-1.668 0.73,-1.68 0.347,-0.973 0.218,-1.396 0.109,-1.567 l -0.044,-0.07 0.025,-0.077 c 0.035,-0.105 0.85,-2.6 -0.274,-4.5 l -0.02,-0.05 c -0.004,-0.018 -0.424,-1.774 -2.485,-2.552 -0.776,-0.471 -2.075,-0.703 -3.25,-0.703 -0.036,0 -0.069,0 -0.103,10e-4 -0.035,-10e-4 -0.068,-10e-4 -0.103,-10e-4 -1.175,0 -2.474,0.232 -3.25,0.703 -2.062,0.778 -2.481,2.534 -2.485,2.552 l -0.02,0.05 c -1.125,1.901 -0.31,4.395 -0.275,4.5 l 0.025,0.077 -0.043,0.07 c -0.107,0.17 -0.237,0.594 0.109,1.567 0.002,0.011 0.258,1.208 0.73,1.68 l 0.042,0.063 c 0.297,0.824 0.745,1.629 1.292,2.33 l -0.004,0.055 -0.202,1.133 c -0.02,0.076 -0.04,0.155 -0.063,0.239 l -0.083,0.239 c -0.205,0.396 -0.797,0.991 -2.455,1.575 -0.014,0.005 -0.734,0.283 -1.707,0.767 -1.067,0.535 -2.438,1.32 -3.519,2.285 -0.023,0.018 -2.07,1.565 -1.896,5.684 0.012,0.299 0.035,0.607 0.073,0.933 0,0.328 0.105,0.592 0.739,0.789 0.052,0.02 5.542,1.962 12.821,1.962 0.09,0 0.183,-0.003 0.274,-0.003 0.091,0 0.183,0.003 0.274,0.003 7.279,0 12.769,-1.942 12.821,-1.962 0.634,-0.197 0.739,-0.461 0.739,-0.789 0.037,-0.325 0.061,-0.634 0.071,-0.933 0.177,-4.119 -1.87,-5.667 -1.892,-5.684 z" /><path
       id="path4"
       d="m 93.096,55.259 c -1.081,-0.965 -2.452,-1.75 -3.52,-2.285 -0.972,-0.483 -1.692,-0.762 -1.706,-0.767 -1.659,-0.584 -2.251,-1.18 -2.456,-1.575 L 85.331,50.393 C 85.308,50.309 85.287,50.23 85.268,50.154 l -0.201,-1.133 -0.006,-0.055 c 0.549,-0.701 0.995,-1.506 1.293,-2.33 l 0.042,-0.063 c 0.473,-0.472 0.729,-1.668 0.729,-1.68 0.347,-0.973 0.218,-1.396 0.11,-1.567 l -0.044,-0.07 0.025,-0.077 c 0.035,-0.105 0.85,-2.6 -0.274,-4.5 l -0.021,-0.05 c -0.003,-0.018 -0.424,-1.774 -2.485,-2.552 -0.776,-0.471 -2.075,-0.703 -3.25,-0.703 -0.035,0 -0.068,0 -0.103,10e-4 -0.035,-10e-4 -0.068,-10e-4 -0.103,-10e-4 -1.176,0 -2.475,0.232 -3.251,0.703 -2.061,0.778 -2.481,2.534 -2.485,2.552 l -0.019,0.05 c -1.125,1.901 -0.311,4.395 -0.275,4.5 l 0.025,0.077 -0.044,0.07 c -0.107,0.17 -0.237,0.594 0.109,1.567 0.002,0.011 0.258,1.208 0.73,1.68 l 0.041,0.063 c 0.298,0.824 0.745,1.629 1.293,2.33 l -0.005,0.055 -0.202,1.133 c -0.02,0.076 -0.039,0.155 -0.063,0.239 l -0.083,0.239 c -0.204,0.396 -0.796,0.991 -2.455,1.575 -0.014,0.005 -0.734,0.283 -1.706,0.767 -1.068,0.535 -2.438,1.32 -3.521,2.285 -0.022,0.018 -2.069,1.565 -1.895,5.684 0.012,0.299 0.034,0.607 0.073,0.933 0,0.328 0.104,0.592 0.738,0.789 0.052,0.02 5.542,1.962 12.82,1.962 0.091,0 0.184,-0.003 0.274,-0.003 0.09,0 0.184,0.003 0.274,0.003 7.278,0 12.769,-1.942 12.821,-1.962 0.633,-0.197 0.738,-0.461 0.738,-0.789 0.038,-0.325 0.061,-0.634 0.072,-0.933 0.181,-4.119 -1.866,-5.667 -1.888,-5.684 z" /><path
       id="path6"
       d="m 30.929,55.259 c -1.081,-0.965 -2.452,-1.75 -3.52,-2.285 -0.972,-0.483 -1.692,-0.762 -1.706,-0.767 -1.659,-0.584 -2.251,-1.18 -2.456,-1.575 L 23.164,50.393 C 23.141,50.309 23.119,50.23 23.1,50.154 l -0.201,-1.133 -0.005,-0.055 c 0.549,-0.701 0.995,-1.506 1.293,-2.33 l 0.042,-0.063 c 0.473,-0.472 0.729,-1.668 0.73,-1.68 0.347,-0.973 0.218,-1.396 0.11,-1.567 l -0.044,-0.07 0.025,-0.077 c 0.035,-0.105 0.85,-2.6 -0.275,-4.5 l -0.02,-0.05 c -0.003,-0.018 -0.423,-1.774 -2.485,-2.552 -0.776,-0.471 -2.075,-0.703 -3.25,-0.703 -0.035,0 -0.069,0 -0.103,10e-4 -0.034,-10e-4 -0.068,-10e-4 -0.103,-10e-4 -1.175,0 -2.474,0.232 -3.25,0.703 -2.061,0.778 -2.481,2.534 -2.485,2.552 l -0.02,0.05 c -1.124,1.901 -0.309,4.395 -0.275,4.5 l 0.026,0.077 -0.044,0.07 c -0.107,0.17 -0.237,0.594 0.11,1.567 0.002,0.011 0.257,1.208 0.73,1.68 l 0.042,0.063 c 0.298,0.824 0.745,1.629 1.293,2.33 l -0.005,0.055 -0.202,1.133 c -0.02,0.076 -0.04,0.155 -0.063,0.239 l -0.083,0.239 c -0.205,0.396 -0.797,0.991 -2.455,1.575 -0.014,0.005 -0.734,0.283 -1.707,0.767 -1.068,0.535 -2.438,1.32 -3.52,2.285 -0.023,0.018 -2.069,1.565 -1.895,5.684 0.011,0.299 0.034,0.607 0.072,0.933 0,0.328 0.105,0.592 0.739,0.789 0.052,0.02 5.542,1.962 12.821,1.962 0.09,0 0.183,-0.003 0.274,-0.003 0.091,0 0.184,0.003 0.275,0.003 7.278,0 12.769,-1.942 12.821,-1.962 0.633,-0.197 0.739,-0.461 0.739,-0.789 0.038,-0.325 0.061,-0.634 0.072,-0.933 0.175,-4.119 -1.872,-5.667 -1.895,-5.684 z" /></g><text
     style="font-weight:bold;font-size:5px;font-family:'Helvetica Neue', Helvetica, Arial-Unicode, Arial, Sans-serif;fill:#000000"
     id="text10"
     font-weight="bold"
     font-size="5px"
     y="79.625999"
     x="-5.0005007">Created by Wilson Joseph</text>
<text
     style="font-weight:bold;font-size:5px;font-family:'Helvetica Neue', Helvetica, Arial-Unicode, Arial, Sans-serif;fill:#000000"
     id="text12"
     font-weight="bold"
     font-size="5px"
     y="84.625999"
     x="-5.0005007">from the Noun Project</text>
</svg>