<svg xmlns="http://www.w3.org/2000/svg" viewBox="0 0 100 125" x="0px" y="0px"><title>Team</title><g data-name="Layer 35"><path d="M32.73,47.09v2.35a29.22,29.22,0,0,0,5.93,3.33,11.62,11.62,0,0,1,22.75-.17A29,29,0,0,0,67,49.43V47.21A12.08,12.08,0,0,1,63.12,35.5a17.09,17.09,0,0,0-13.26-6.3h0A17.11,17.11,0,0,0,36.5,35.61a11.83,11.83,0,0,1,.26,2.47A12.12,12.12,0,0,1,32.73,47.09Z"/><circle cx="49.86" cy="16.62" r="10.05"/><path d="M42.57,67.64a18.07,18.07,0,0,0-1.19-4.88,11.72,11.72,0,0,1-2.44-4.31,18,18,0,0,0-14.33-7.13h0a18,18,0,0,0-18,18.05v3.27a30.63,30.63,0,0,0,26.34,4.68A18.82,18.82,0,0,1,42.57,67.64Z"/><path d="M35,36.29c-.06-.34-.14-.68-.23-1a10.58,10.58,0,1,0-3.64,11.1c.28-.23.56-.46.82-.72a9.82,9.82,0,0,0,.82-.89,10.55,10.55,0,0,0,2.39-6.69c0-.18,0-.35,0-.52A10.71,10.71,0,0,0,35,36.29Z"/><path d="M75,51.32h0a18,18,0,0,0-13.58,6.2,11.66,11.66,0,0,1-3.49,6.07,17.63,17.63,0,0,0-.86,3.85A18.88,18.88,0,0,1,67.29,77.5a31,31,0,0,0,7.7,1A30.61,30.61,0,0,0,93,72.62V69.37A18.06,18.06,0,0,0,75,51.32Z"/><path d="M67.76,45.79c.25.24.53.47.81.69a10.58,10.58,0,1,0-3.75-11.31c-.09.33-.17.66-.23,1a11.76,11.76,0,0,0-.15,1.21c0,.23,0,.46,0,.7a10.51,10.51,0,0,0,2.52,6.84A8.48,8.48,0,0,0,67.76,45.79Z"/><path d="M65.74,77.88c-.15-.33-.31-.65-.47-1A17.17,17.17,0,0,0,57,69.1l-.77-.31c-.25-.1-.51-.2-.77-.28a17,17,0,0,0-5.37-.88h0a17,17,0,0,0-5.86,1.06c-.26.09-.52.17-.77.28s-.51.24-.77.36A17.28,17.28,0,0,0,35,76.67c-.17.33-.33.67-.49,1s-.27.62-.39.93a17.19,17.19,0,0,0-1.15,6.15v3.11a29.18,29.18,0,0,0,34.27,0V84.77a17,17,0,0,0-1.1-6C66,78.48,65.87,78.17,65.74,77.88Z"/><path d="M59.93,53.18a10,10,0,0,0-19.77.15c0,.26-.08.53-.11.8s0,.54,0,.82c0,0,0,.07,0,.11a10.15,10.15,0,0,0,2.75,6.88,10,10,0,0,0,13.83.75A9.61,9.61,0,0,0,58.17,61a10,10,0,0,0,1.15-2,9.67,9.67,0,0,0,.62-2.15,9.19,9.19,0,0,0,.17-1.75,2.11,2.11,0,0,0,0-.26,7.38,7.38,0,0,0,0-.82C60,53.71,60,53.45,59.93,53.18Z"/></g><text x="0" y="115" fill="#000000" font-size="5px" font-weight="bold" font-family="'Helvetica Neue', Helvetica, Arial-Unicode, Arial, Sans-serif">Created by David Glöckler</text><text x="0" y="120" fill="#000000" font-size="5px" font-weight="bold" font-family="'Helvetica Neue', Helvetica, Arial-Unicode, Arial, Sans-serif">from the Noun Project</text></svg>