<?xml version="1.0" encoding="UTF-8" standalone="no"?>
<!DOCTYPE svg PUBLIC "-//W3C//DTD SVG 1.1//EN" "http://www.w3.org/Graphics/SVG/1.1/DTD/svg11.dtd">
<svg version="1.1" xmlns="http://www.w3.org/2000/svg" xmlns:xlink="http://www.w3.org/1999/xlink" preserveAspectRatio="xMidYMid meet" viewBox="96.84284444375668 32.638400000000004 446.3171555562435 448.67635977376017" width="442.32" height="444.68"><defs><path d="M231.58 253.13C241 259.98 251.19 265.7 261.94 270.18C268.41 237.97 299.76 217.09 331.98 223.56C355.18 228.22 373.42 246.18 378.42 269.31C388.53 264.98 398.13 259.54 407.04 253.08C407.04 251.94 407.04 242.85 407.04 241.72C389.94 226.87 382.32 203.87 387.17 181.76C370.55 161.34 345.61 149.49 319.28 149.5C319.28 149.5 319.28 149.5 319.28 149.5C292.68 149.49 267.52 161.57 250.88 182.32C251.77 186.48 252.21 190.72 252.21 194.97C252.19 212.58 244.69 229.35 231.58 241.1C231.58 241.1 231.58 251.93 231.58 253.13Z" id="b26kKAKyw"></path><path d="M319.28 33.64C290.86 33.64 267.83 56.68 267.83 85.09C267.83 113.51 290.86 136.55 319.28 136.55C347.7 136.55 370.74 113.51 370.74 85.09C370.74 56.68 347.7 33.64 319.28 33.64Z" id="a1Gl5Wnw3D"></path><path d="M275.87 321.33C270.18 314.95 265.92 307.43 263.37 299.26C245.97 276.29 218.82 262.79 190 262.76C190 262.76 190 262.76 190 262.76C139.1 262.76 97.84 304.02 97.84 354.92C97.84 355 97.84 355.09 97.84 355.17C97.84 356.85 97.84 370.24 97.84 371.92C136.75 400.15 186.45 408.98 232.7 395.88C242.34 373.78 259.92 356.09 281.96 346.32C281.1 337.75 279.05 329.34 275.87 321.33Z" id="e2kyOE8Es"></path><path d="M242.02 180.68C234.1 151.84 204.29 134.87 175.44 142.79C146.59 150.71 129.63 180.52 137.55 209.37C145.47 238.22 175.28 255.18 204.13 247.26C211.14 245.34 217.69 242.02 223.39 237.52C224.82 236.34 226.25 235.16 227.58 233.83C229.08 232.4 230.48 230.88 231.78 229.27C239.7 219.61 244.02 207.51 244.02 195.02C244.02 194.1 244.02 193.23 244.02 192.36C243.88 190.16 243.6 187.97 243.2 185.8C242.89 184.06 242.48 182.32 242.02 180.68Z" id="aa6JjFxHq"></path><path d="M448 262.76C421.32 262.78 395.96 274.36 378.47 294.5C375.84 306.45 369.6 317.3 360.6 325.58C358.4 331.97 356.92 338.58 356.2 345.29C379.74 354.91 398.54 373.42 408.52 396.8C421.4 400.15 434.64 401.87 447.95 401.92C481.1 401.89 513.38 391.35 540.16 371.81C540.16 370.15 540.16 356.84 540.16 355.17C540.13 304.25 498.93 262.93 448 262.76C448 262.76 448 262.76 448 262.76Z" id="cpQ4TRAcq"></path><path d="M415.08 237.98C438.85 256.14 472.85 251.6 491.01 227.83C509.17 204.05 504.63 170.06 480.86 151.89C457.09 133.73 423.09 138.27 404.93 162.05C400.81 167.43 397.74 173.55 395.88 180.07C395.42 181.76 395.01 183.45 394.7 185.19C394.34 187.24 394.08 189.31 393.93 191.39C393.93 192.56 393.93 193.74 393.93 194.97C393.92 207.81 398.49 220.23 406.84 229.99C408.1 231.57 409.46 233.06 410.93 234.44C412.21 235.67 413.64 236.85 415.08 237.98Z" id="bjEfz4cSF"></path><path d="M398.18 393.63C388.99 375.93 374.06 361.88 355.84 353.79C355.45 353.63 352.29 352.36 351.9 352.2C350.62 351.69 349.29 351.18 347.96 350.77C339.09 347.8 329.81 346.28 320.46 346.27C320.46 346.27 320.46 346.27 320.46 346.27C310.22 346.3 300.06 348.13 290.46 351.69C289.13 352.15 287.8 352.56 286.52 353.13C285.24 353.69 283.9 354.36 282.57 354.97C265.83 363.05 252.05 376.2 243.2 392.55C242.33 394.24 241.51 395.98 240.69 397.67C239.87 399.36 239.31 400.84 238.69 402.43C234.82 412.48 232.83 423.15 232.81 433.92C232.81 435.51 232.81 448.25 232.81 449.84C285.13 487.81 355.94 487.81 408.27 449.84C408.27 448.26 408.27 435.6 408.27 434.02C408.26 423.53 406.35 413.12 402.64 403.3C401.92 401.82 401.25 400.23 400.59 398.75C399.82 397.06 399 395.42 398.18 393.63Z" id="c6uxesMRRd"></path><path d="M312.17 229.85C290.07 233.39 272.83 250.89 269.62 273.05C269.62 274.38 269.21 275.76 269.06 277.15C268.9 278.53 269.06 279.91 269.06 281.34C269.06 281.34 269.06 281.7 269.06 281.91C269.14 295 274.17 307.58 283.14 317.13C301.89 337.2 333.13 338.89 353.95 320.97C356.91 318.41 359.56 315.51 361.83 312.32C364.18 309.15 366.16 305.71 367.72 302.08C369.2 298.55 370.26 294.85 370.89 291.07C371.47 288.12 371.76 285.12 371.76 282.11C371.79 281.67 371.79 281.22 371.76 280.78C371.84 279.38 371.84 277.98 371.76 276.58C371.2 275 371.2 273.66 370.84 272.28C366.36 244.36 340.09 225.36 312.17 229.85Z" id="c2pu16ahS2"></path></defs><g><g><use xlink:href="#b26kKAKyw" opacity="1" fill="#000000" fill-opacity="1"></use><g><use xlink:href="#b26kKAKyw" opacity="1" fill-opacity="0" stroke="#000000" stroke-width="1" stroke-opacity="0"></use></g></g><g><use xlink:href="#a1Gl5Wnw3D" opacity="1" fill="#000000" fill-opacity="1"></use><g><use xlink:href="#a1Gl5Wnw3D" opacity="1" fill-opacity="0" stroke="#000000" stroke-width="1" stroke-opacity="0"></use></g></g><g><use xlink:href="#e2kyOE8Es" opacity="1" fill="#000000" fill-opacity="1"></use><g><use xlink:href="#e2kyOE8Es" opacity="1" fill-opacity="0" stroke="#000000" stroke-width="1" stroke-opacity="0"></use></g></g><g><use xlink:href="#aa6JjFxHq" opacity="1" fill="#000000" fill-opacity="1"></use><g><use xlink:href="#aa6JjFxHq" opacity="1" fill-opacity="0" stroke="#000000" stroke-width="1" stroke-opacity="0"></use></g></g><g><use xlink:href="#cpQ4TRAcq" opacity="1" fill="#000000" fill-opacity="1"></use><g><use xlink:href="#cpQ4TRAcq" opacity="1" fill-opacity="0" stroke="#000000" stroke-width="1" stroke-opacity="0"></use></g></g><g><use xlink:href="#bjEfz4cSF" opacity="1" fill="#000000" fill-opacity="1"></use><g><use xlink:href="#bjEfz4cSF" opacity="1" fill-opacity="0" stroke="#000000" stroke-width="1" stroke-opacity="0"></use></g></g><g><use xlink:href="#c6uxesMRRd" opacity="1" fill="#000000" fill-opacity="1"></use><g><use xlink:href="#c6uxesMRRd" opacity="1" fill-opacity="0" stroke="#000000" stroke-width="1" stroke-opacity="0"></use></g></g><g><use xlink:href="#c2pu16ahS2" opacity="1" fill="#000000" fill-opacity="1"></use><g><use xlink:href="#c2pu16ahS2" opacity="1" fill-opacity="0" stroke="#000000" stroke-width="1" stroke-opacity="0"></use></g></g></g></svg>